<svg xmlns="http://www.w3.org/2000/svg" xmlns:xlink="http://www.w3.org/1999/xlink" width="227.998" height="227.57" viewBox="0 0 227.998 227.57">
  <defs>
    <radialGradient id="radial-gradient" cx="0.5" cy="0.5" r="0.5" gradientUnits="objectBoundingBox">
      <stop offset="0" stop-color="#8fb3f2"/>
      <stop offset="1" stop-color="#2256af" stop-opacity="0.239"/>
    </radialGradient>
  </defs>
  <path id="교차_2" data-name="교차 2" d="M120,225.952a2.451,2.451,0,1,1,4.853.487c-1.555.154-3.127.278-4.7.369A2.446,2.446,0,0,1,120,225.952Zm-17.954.477a2.451,2.451,0,1,1,4.7.373C105.171,226.71,103.608,226.586,102.046,226.429Zm37.405-2.928a2.44,2.44,0,0,1,1.092.256q-1.51.369-3.033.7A2.448,2.448,0,0,1,139.451,223.5Zm-53.06.241a2.453,2.453,0,0,1,2.981.688Q87.874,224.105,86.391,223.742ZM171,207.328a2.451,2.451,0,1,1,4.588,1.2q-.965.632-1.942,1.243-.1.008-.2.008A2.451,2.451,0,0,1,171,207.328Zm-17,0a2.451,2.451,0,1,1,2.451,2.451A2.451,2.451,0,0,1,154,207.328Zm-17,0a2.451,2.451,0,1,1,2.452,2.451A2.451,2.451,0,0,1,137,207.328Zm-17,0a2.451,2.451,0,1,1,2.451,2.451A2.451,2.451,0,0,1,120,207.328Zm-18,0a2.451,2.451,0,1,1,2.451,2.451A2.451,2.451,0,0,1,102,207.328Zm-17,0a2.451,2.451,0,1,1,2.451,2.451A2.451,2.451,0,0,1,85,207.328Zm-17,0a2.451,2.451,0,1,1,2.451,2.451A2.451,2.451,0,0,1,68,207.328Zm-14.636,2.449q-1.06-.664-2.1-1.348a2.451,2.451,0,1,1,2.19,1.35ZM189,188.7a2.451,2.451,0,1,1,2.451,2.451A2.451,2.451,0,0,1,189,188.7Zm-18,0a2.451,2.451,0,1,1,2.451,2.451A2.451,2.451,0,0,1,171,188.7Zm-17,0a2.451,2.451,0,1,1,2.451,2.451A2.451,2.451,0,0,1,154,188.7Zm-17,0a2.451,2.451,0,1,1,2.452,2.451A2.451,2.451,0,0,1,137,188.7Zm-17,0a2.451,2.451,0,1,1,2.451,2.451A2.451,2.451,0,0,1,120,188.7Zm-18,0a2.451,2.451,0,1,1,2.451,2.451A2.451,2.451,0,0,1,102,188.7Zm-17,0a2.451,2.451,0,1,1,2.451,2.451A2.451,2.451,0,0,1,85,188.7Zm-17,0a2.451,2.451,0,1,1,2.451,2.451A2.451,2.451,0,0,1,68,188.7Zm-17,0a2.451,2.451,0,1,1,2.451,2.451A2.451,2.451,0,0,1,51,188.7Zm-17,0a2.451,2.451,0,1,1,2.451,2.451A2.451,2.451,0,0,1,34,188.7Zm172-18.625a2.451,2.451,0,1,1,2.451,2.451A2.451,2.451,0,0,1,206,170.077Zm-17,0a2.451,2.451,0,1,1,2.451,2.451A2.451,2.451,0,0,1,189,170.077Zm-18,0a2.451,2.451,0,1,1,2.451,2.451A2.451,2.451,0,0,1,171,170.077Zm-17,0a2.451,2.451,0,1,1,2.451,2.451A2.451,2.451,0,0,1,154,170.077Zm-17,0a2.451,2.451,0,1,1,2.452,2.451A2.451,2.451,0,0,1,137,170.077Zm-17,0a2.451,2.451,0,1,1,2.451,2.451A2.451,2.451,0,0,1,120,170.077Zm-18,0a2.451,2.451,0,1,1,2.451,2.451A2.451,2.451,0,0,1,102,170.077Zm-17,0a2.451,2.451,0,1,1,2.451,2.451A2.451,2.451,0,0,1,85,170.077Zm-17,0a2.451,2.451,0,1,1,2.451,2.451A2.451,2.451,0,0,1,68,170.077Zm-17,0a2.451,2.451,0,1,1,2.451,2.451A2.451,2.451,0,0,1,51,170.077Zm-17,0a2.451,2.451,0,1,1,2.451,2.451A2.451,2.451,0,0,1,34,170.077Zm-17,0a2.451,2.451,0,1,1,2.451,2.451A2.451,2.451,0,0,1,17,170.077Zm189-18.625a2.451,2.451,0,1,1,2.451,2.452A2.451,2.451,0,0,1,206,151.451Zm-17,0a2.451,2.451,0,1,1,2.451,2.452A2.451,2.451,0,0,1,189,151.451Zm-18,0a2.451,2.451,0,1,1,2.451,2.452A2.451,2.451,0,0,1,171,151.451Zm-17,0a2.451,2.451,0,1,1,2.451,2.452A2.451,2.451,0,0,1,154,151.451Zm-17,0a2.451,2.451,0,1,1,2.452,2.452A2.452,2.452,0,0,1,137,151.451Zm-17,0a2.451,2.451,0,1,1,2.451,2.452A2.451,2.451,0,0,1,120,151.451Zm-18,0a2.451,2.451,0,1,1,2.451,2.452A2.452,2.452,0,0,1,102,151.451Zm-17,0a2.451,2.451,0,1,1,2.451,2.452A2.451,2.451,0,0,1,85,151.451Zm-17,0A2.451,2.451,0,1,1,70.45,153.9,2.452,2.452,0,0,1,68,151.451Zm-17,0a2.451,2.451,0,1,1,2.451,2.452A2.451,2.451,0,0,1,51,151.451Zm-17,0a2.451,2.451,0,1,1,2.451,2.452A2.451,2.451,0,0,1,34,151.451Zm-17,0a2.451,2.451,0,1,1,2.451,2.452A2.451,2.451,0,0,1,17,151.451Zm189-18.626a2.451,2.451,0,1,1,2.451,2.451A2.451,2.451,0,0,1,206,132.826Zm-17,0a2.451,2.451,0,1,1,2.451,2.451A2.451,2.451,0,0,1,189,132.826Zm-18,0a2.451,2.451,0,1,1,2.451,2.451A2.451,2.451,0,0,1,171,132.826Zm-17,0a2.451,2.451,0,1,1,2.451,2.451A2.451,2.451,0,0,1,154,132.826Zm-17,0a2.451,2.451,0,1,1,2.452,2.451A2.451,2.451,0,0,1,137,132.826Zm-17,0a2.451,2.451,0,1,1,2.451,2.451A2.451,2.451,0,0,1,120,132.826Zm-18,0a2.451,2.451,0,1,1,2.451,2.451A2.451,2.451,0,0,1,102,132.826Zm-17,0a2.451,2.451,0,1,1,2.451,2.451A2.451,2.451,0,0,1,85,132.826Zm-17,0a2.451,2.451,0,1,1,2.451,2.451A2.451,2.451,0,0,1,68,132.826Zm-17,0a2.451,2.451,0,1,1,2.451,2.451A2.451,2.451,0,0,1,51,132.826Zm-17,0a2.451,2.451,0,1,1,2.451,2.451A2.451,2.451,0,0,1,34,132.826Zm-17,0a2.451,2.451,0,1,1,2.451,2.451A2.451,2.451,0,0,1,17,132.826ZM2.082,135.249q-.442-2.276-.792-4.582a2.451,2.451,0,1,1,1.161,4.61A2.469,2.469,0,0,1,2.082,135.249ZM223,132.826a2.451,2.451,0,0,1,2.451-2.451,2.477,2.477,0,0,1,.3.018c-.242,1.624-.517,3.226-.827,4.826A2.451,2.451,0,0,1,223,132.826Zm0-18.624a2.451,2.451,0,0,1,3.993-1.9c0,.4.006.8.006,1.2,0,.876-.01,1.754-.03,2.625A2.451,2.451,0,0,1,223,114.2Zm-17,0a2.451,2.451,0,1,1,2.451,2.451A2.451,2.451,0,0,1,206,114.2Zm-17,0a2.451,2.451,0,1,1,2.451,2.451A2.451,2.451,0,0,1,189,114.2Zm-18,0a2.451,2.451,0,1,1,2.451,2.451A2.451,2.451,0,0,1,171,114.2Zm-17,0a2.451,2.451,0,1,1,2.451,2.451A2.451,2.451,0,0,1,154,114.2Zm-17,0a2.451,2.451,0,1,1,2.452,2.451A2.451,2.451,0,0,1,137,114.2Zm-17,0a2.451,2.451,0,1,1,2.451,2.451A2.451,2.451,0,0,1,120,114.2Zm-18,0a2.451,2.451,0,1,1,2.451,2.451A2.451,2.451,0,0,1,102,114.2Zm-17,0a2.451,2.451,0,1,1,2.451,2.451A2.451,2.451,0,0,1,85,114.2Zm-17,0a2.451,2.451,0,1,1,2.451,2.451A2.451,2.451,0,0,1,68,114.2Zm-17,0a2.451,2.451,0,1,1,2.451,2.451A2.451,2.451,0,0,1,51,114.2Zm-17,0a2.451,2.451,0,1,1,2.451,2.451A2.451,2.451,0,0,1,34,114.2Zm-17,0a2.451,2.451,0,1,1,2.451,2.451A2.451,2.451,0,0,1,17,114.2Zm-17,.121c0-.073,0-.138,0-.211a2.451,2.451,0,1,1,0,.211ZM223,95.576a2.451,2.451,0,0,1,2.179-2.436c.29,1.6.546,3.21.768,4.836a2.453,2.453,0,0,1-2.947-2.4Zm-17,0a2.451,2.451,0,1,1,2.451,2.451A2.451,2.451,0,0,1,206,95.576Zm-17,0a2.451,2.451,0,1,1,2.451,2.451A2.451,2.451,0,0,1,189,95.576Zm-18,0a2.451,2.451,0,1,1,2.451,2.451A2.451,2.451,0,0,1,171,95.576Zm-17,0a2.451,2.451,0,1,1,2.451,2.451A2.451,2.451,0,0,1,154,95.576Zm-17,0a2.451,2.451,0,1,1,2.452,2.451A2.451,2.451,0,0,1,137,95.576Zm-17,0a2.451,2.451,0,1,1,2.451,2.451A2.451,2.451,0,0,1,120,95.576Zm-18,0a2.451,2.451,0,1,1,2.451,2.451A2.451,2.451,0,0,1,102,95.576Zm-17,0a2.451,2.451,0,1,1,2.451,2.451A2.451,2.451,0,0,1,85,95.576Zm-17,0a2.451,2.451,0,1,1,2.451,2.451A2.451,2.451,0,0,1,68,95.576Zm-17,0a2.451,2.451,0,1,1,2.451,2.451A2.451,2.451,0,0,1,51,95.576Zm-17,0a2.451,2.451,0,1,1,2.451,2.451A2.451,2.451,0,0,1,34,95.576Zm-17,0a2.451,2.451,0,1,1,2.451,2.451A2.451,2.451,0,0,1,17,95.576ZM1.1,97.623q.311-2.221.707-4.412A2.451,2.451,0,1,1,1.1,97.623ZM206,76.952a2.451,2.451,0,1,1,2.451,2.451A2.451,2.451,0,0,1,206,76.952Zm-17,0a2.451,2.451,0,1,1,2.451,2.451A2.451,2.451,0,0,1,189,76.952Zm-18,0a2.451,2.451,0,1,1,2.451,2.451A2.451,2.451,0,0,1,171,76.952Zm-17,0a2.451,2.451,0,1,1,2.451,2.451A2.451,2.451,0,0,1,154,76.952Zm-17,0a2.451,2.451,0,1,1,2.452,2.451A2.451,2.451,0,0,1,137,76.952Zm-17,0A2.451,2.451,0,1,1,122.45,79.4,2.451,2.451,0,0,1,120,76.952Zm-18,0A2.451,2.451,0,1,1,104.45,79.4,2.451,2.451,0,0,1,102,76.952Zm-17,0A2.451,2.451,0,1,1,87.451,79.4,2.451,2.451,0,0,1,85,76.952Zm-17,0A2.451,2.451,0,1,1,70.45,79.4,2.451,2.451,0,0,1,68,76.952Zm-17,0A2.451,2.451,0,1,1,53.451,79.4,2.451,2.451,0,0,1,51,76.952Zm-17,0A2.451,2.451,0,1,1,36.451,79.4,2.451,2.451,0,0,1,34,76.952Zm-17,0A2.451,2.451,0,1,1,19.451,79.4,2.451,2.451,0,0,1,17,76.952ZM206,58.325a2.451,2.451,0,1,1,2.451,2.451A2.451,2.451,0,0,1,206,58.325Zm-17,0a2.451,2.451,0,1,1,2.451,2.451A2.451,2.451,0,0,1,189,58.325Zm-18,0a2.451,2.451,0,1,1,2.451,2.451A2.451,2.451,0,0,1,171,58.325Zm-17,0a2.451,2.451,0,1,1,2.451,2.451A2.451,2.451,0,0,1,154,58.325Zm-17,0a2.451,2.451,0,1,1,2.452,2.451A2.451,2.451,0,0,1,137,58.325Zm-17,0a2.451,2.451,0,1,1,2.451,2.451A2.451,2.451,0,0,1,120,58.325Zm-18,0a2.451,2.451,0,1,1,2.451,2.451A2.451,2.451,0,0,1,102,58.325Zm-17,0a2.451,2.451,0,1,1,2.451,2.451A2.451,2.451,0,0,1,85,58.325Zm-17,0a2.451,2.451,0,1,1,2.451,2.451A2.451,2.451,0,0,1,68,58.325Zm-17,0a2.451,2.451,0,1,1,2.451,2.451A2.451,2.451,0,0,1,51,58.325Zm-17,0a2.451,2.451,0,1,1,2.451,2.451A2.451,2.451,0,0,1,34,58.325Zm-17,0a2.451,2.451,0,1,1,2.451,2.451A2.451,2.451,0,0,1,17,58.325ZM189,39.7a2.451,2.451,0,1,1,2.451,2.451A2.451,2.451,0,0,1,189,39.7Zm-18,0a2.451,2.451,0,1,1,2.451,2.451A2.451,2.451,0,0,1,171,39.7Zm-17,0a2.451,2.451,0,1,1,2.451,2.451A2.451,2.451,0,0,1,154,39.7Zm-17,0a2.451,2.451,0,1,1,2.452,2.451A2.451,2.451,0,0,1,137,39.7Zm-17,0a2.451,2.451,0,1,1,2.451,2.451A2.451,2.451,0,0,1,120,39.7Zm-18,0a2.451,2.451,0,1,1,2.451,2.451A2.451,2.451,0,0,1,102,39.7Zm-17,0a2.451,2.451,0,1,1,2.451,2.451A2.451,2.451,0,0,1,85,39.7Zm-17,0a2.451,2.451,0,1,1,2.451,2.451A2.451,2.451,0,0,1,68,39.7Zm-17,0a2.451,2.451,0,1,1,2.451,2.451A2.451,2.451,0,0,1,51,39.7Zm-17,0a2.451,2.451,0,1,1,2.451,2.451A2.451,2.451,0,0,1,34,39.7ZM171,21.075a2.451,2.451,0,1,1,2.451,2.452A2.451,2.451,0,0,1,171,21.075Zm-17,0a2.451,2.451,0,1,1,2.451,2.452A2.451,2.451,0,0,1,154,21.075Zm-17,0a2.451,2.451,0,1,1,2.452,2.452A2.452,2.452,0,0,1,137,21.075Zm-17,0a2.451,2.451,0,1,1,2.451,2.452A2.451,2.451,0,0,1,120,21.075Zm-18,0a2.451,2.451,0,1,1,2.451,2.452A2.452,2.452,0,0,1,102,21.075Zm-17,0a2.451,2.451,0,1,1,2.451,2.452A2.451,2.451,0,0,1,85,21.075Zm-17,0a2.451,2.451,0,1,1,2.451,2.452A2.452,2.452,0,0,1,68,21.075Zm-17,0a2.451,2.451,0,1,1,2.451,2.452A2.451,2.451,0,0,1,51,21.075ZM137,2.451s0-.01,0-.015c1.563.329,3.119.692,4.657,1.084A2.452,2.452,0,0,1,137,2.451Zm-17,0A2.45,2.45,0,0,1,121.338.266q1.281.087,2.555.2A2.451,2.451,0,1,1,120,2.451Zm-18,0A2.447,2.447,0,0,1,102.994.48c.859-.079,1.716-.148,2.581-.207A2.451,2.451,0,1,1,102,2.451ZM85.256,3.542q2.306-.591,4.646-1.086a2.451,2.451,0,0,1-4.646,1.086Z" transform="translate(0.498 0.242)" stroke="rgba(0,0,0,0)" stroke-miterlimit="10" stroke-width="1" opacity="0.62" fill="url(#radial-gradient)"/>
</svg>
