<svg xmlns="http://www.w3.org/2000/svg" width="16" height="16" viewBox="0 0 16 16"><g transform="translate(3909 -1628)"><rect width="16" height="16" transform="translate(-3909 1628)" fill="rgba(255,0,0,0)"/><path d="M151-808.614l-4.064-4.064a6.256,6.256,0,0,1-1.887,1.06,6.483,6.483,0,0,1-2.207.383,6.458,6.458,0,0,1-4.747-1.942,6.455,6.455,0,0,1-1.943-4.746,6.462,6.462,0,0,1,1.942-4.748,6.453,6.453,0,0,1,4.746-1.944,6.461,6.461,0,0,1,4.748,1.943,6.456,6.456,0,0,1,1.944,4.747,6.416,6.416,0,0,1-.393,2.238,6.256,6.256,0,0,1-1.05,1.855l4.064,4.064L151-808.614Zm-8.157-4.261a4.873,4.873,0,0,0,3.582-1.467,4.873,4.873,0,0,0,1.467-3.582,4.873,4.873,0,0,0-1.467-3.582,4.873,4.873,0,0,0-3.582-1.467,4.873,4.873,0,0,0-3.582,1.467,4.873,4.873,0,0,0-1.467,3.582,4.873,4.873,0,0,0,1.467,3.582A4.873,4.873,0,0,0,142.845-812.875Zm-.82-2.1V-817.1H139.9v-1.641h2.125v-2.125h1.641v2.125h2.125v1.641h-2.125v2.125Z" transform="translate(-4045.155 2452.614)" fill="#fff"/></g></svg>