<svg xmlns="http://www.w3.org/2000/svg" width="16" height="16" viewBox="0 0 16 16"><g transform="translate(4493 5152)"><rect width="16" height="16" transform="translate(-4493 -5152)" fill="rgba(255,0,87,0)"/><path d="M121.556-833.778a1.5,1.5,0,0,1-1.1-.457,1.5,1.5,0,0,1-.457-1.1v-3.111a1.5,1.5,0,0,1,.457-1.1,1.5,1.5,0,0,1,1.1-.457h3.111a1.5,1.5,0,0,1,1.1.457,1.5,1.5,0,0,1,.457,1.1v3.111a1.5,1.5,0,0,1-.457,1.1,1.5,1.5,0,0,1-1.1.457Zm0,7.778a1.5,1.5,0,0,1-1.1-.457,1.5,1.5,0,0,1-.457-1.1v-3.111a1.5,1.5,0,0,1,.457-1.1,1.5,1.5,0,0,1,1.1-.457h3.111a1.5,1.5,0,0,1,1.1.457,1.5,1.5,0,0,1,.457,1.1v3.111a1.5,1.5,0,0,1-.457,1.1,1.5,1.5,0,0,1-1.1.457Zm7.778-7.778a1.5,1.5,0,0,1-1.1-.457,1.5,1.5,0,0,1-.457-1.1v-3.111a1.5,1.5,0,0,1,.457-1.1,1.5,1.5,0,0,1,1.1-.457h3.111a1.5,1.5,0,0,1,1.1.457,1.5,1.5,0,0,1,.457,1.1v3.111a1.5,1.5,0,0,1-.457,1.1,1.5,1.5,0,0,1-1.1.457Zm0,7.778a1.5,1.5,0,0,1-1.1-.457,1.5,1.5,0,0,1-.457-1.1v-3.111a1.5,1.5,0,0,1,.457-1.1,1.5,1.5,0,0,1,1.1-.457h3.111a1.5,1.5,0,0,1,1.1.457,1.5,1.5,0,0,1,.457,1.1v3.111a1.5,1.5,0,0,1-.457,1.1,1.5,1.5,0,0,1-1.1.457Zm-7.778-9.333h3.111v-3.111h-3.111Zm7.778,0h3.111v-3.111h-3.111Zm0,7.778h3.111v-3.111h-3.111Zm-7.778,0h3.111v-3.111h-3.111ZM129.333-835.333ZM129.333-830.667ZM124.667-830.667ZM124.667-835.333Z" transform="translate(-4612 -4311)" fill="#637381"/></g></svg>