<svg xmlns="http://www.w3.org/2000/svg" xmlns:xlink="http://www.w3.org/1999/xlink" width="58" height="54" viewBox="0 0 58 54">
  <defs>
    <filter id="패스_6927" x="0" y="0" width="58" height="54" filterUnits="userSpaceOnUse">
      <feOffset dy="3" input="SourceAlpha"/>
      <feGaussianBlur stdDeviation="3" result="blur"/>
      <feFlood flood-color="#e963d2" flood-opacity="0.22"/>
      <feComposite operator="in" in2="blur"/>
      <feComposite in="SourceGraphic"/>
    </filter>
  </defs>
  <g id="상단채팅버튼" transform="translate(-1407 -6)">
    <rect id="사각형_4742" data-name="사각형 4742" width="36" height="36" rx="6" transform="translate(1418 12)" fill="#e8ecf2" opacity="0"/>
    <g id="채팅전" transform="translate(1416 12)">
      <g id="btn">
        <g transform="matrix(1, 0, 0, 1, -9, -6)" filter="url(#패스_6927)">
          <path id="패스_6927-2" data-name="패스 6927" d="M23.274,35.757C35.4,34.308,40,28.915,40,28.915c-2.331-.535-4.47-2.71-4.183-4.884.095-.717.291-1.416.457-2.123A17.1,17.1,0,0,0,36.727,18c0-9.941-7.32-18-17.783-18S0,8.059,0,18,9.608,36,19.448,36a23.941,23.941,0,0,0,3.826-.243" transform="translate(9 6)" fill="#e963d2"/>
        </g>
        <g id="symbol" transform="translate(4.588 4.502)">
          <rect id="사각형_2866" data-name="사각형 2866" width="19.587" height="19.587" transform="translate(14.177 0) rotate(45)" fill="none"/>
          <path id="패스_4504" data-name="패스 4504" d="M166.567,435.492l-14.207,13.5,14.207,13.5,14.207-13.5Zm-13.374,13.5,13.374-12.708,13.374,12.708L166.567,461.7Z" transform="translate(-152.36 -435.492)" fill="#ff8edc"/>
          <g id="그룹_2372" data-name="그룹 2372" transform="translate(0.779 3.919)">
            <g id="그룹_2371" data-name="그룹 2371">
              <path id="패스_4505" data-name="패스 4505" d="M178.753,515.236c-4.252,0-7.218-2.432-7.382-6.051l-.029-.649h4.8l.069.549c.154,1.225,1.2,1.957,2.788,1.957,1.033,0,1.782-.468,1.782-1.112,0-.613-.233-1.09-3.252-1.664-2.441-.464-5.685-1.55-5.685-5.6,0-3.033,2.834-5.152,6.891-5.152,3.771,0,6.645,2.4,6.833,5.716l.037.656h-4.812l-.081-.534a1.961,1.961,0,0,0-2.2-1.664c-.431,0-1.839.071-1.839.977,0,.651.791,1,3.682,1.609a7.255,7.255,0,0,1,4.07,2.053,5.008,5.008,0,0,1,1.2,3.451,4.936,4.936,0,0,1-2.071,4.038A8.093,8.093,0,0,1,178.753,515.236Z" transform="translate(-170.658 -496.888)" fill="#fffdfd"/>
              <path id="패스_4506" data-name="패스 4506" d="M170.542,490.253c3.439,0,6.009,2.139,6.179,5.127h-3.552a2.566,2.566,0,0,0-2.853-2.2c-1.606,0-2.494.655-2.494,1.6,0,1.176,1.19,1.58,4.195,2.216,3.552.752,4.762,2.544,4.762,4.9,0,3.007-2.778,4.838-6.217,4.838-3.8,0-6.576-2.1-6.727-5.455h3.533c.189,1.5,1.474,2.506,3.439,2.506,1.4,0,2.437-.713,2.437-1.735,0-1.253-1.039-1.754-3.779-2.274-3.345-.636-5.159-2.043-5.159-4.992,0-2.833,2.759-4.53,6.235-4.53m0-1.246a9.2,9.2,0,0,0-5.193,1.441A5.18,5.18,0,0,0,163,494.782a5.522,5.522,0,0,0,1.725,4.259,6.372,6.372,0,0,0,1.46.991h-3.715l.059,1.3a6.682,6.682,0,0,0,.711,2.757,6.461,6.461,0,0,0,1.753,2.13,9.6,9.6,0,0,0,10.776.2,5.537,5.537,0,0,0,2.323-4.528,5.594,5.594,0,0,0-1.36-3.853,6.207,6.207,0,0,0-1.9-1.416H178.1l-.075-1.313c-.208-3.653-3.357-6.305-7.488-6.305Zm-1.408,5.819a.374.374,0,0,1,0-.044c0-.049,0-.077.087-.135a2.01,2.01,0,0,1,1.1-.22c1.227,0,1.476.6,1.556,1.13l.021.138a19.738,19.738,0,0,1-2.047-.528,2.055,2.055,0,0,1-.711-.341Zm1.672,7.711c-.589,0-1.978-.137-2.137-1.408l-.032-.253q.278.063.57.119a9.96,9.96,0,0,1,2.495.706c.231.133.231.183.231.347,0,.265-.516.489-1.127.489Z" transform="translate(-162.466 -489.007)" fill="#e963d2"/>
            </g>
          </g>
          <g id="그룹_2373" data-name="그룹 2373" transform="translate(15.993 11.374)">
            <path id="패스_4507" data-name="패스 4507" d="M372.205,608.116c-2.807,0-4.765-1.394-4.871-3.468l-.028-.544h2.571c-1.348-.415-2.481-1.211-2.481-2.9a2.894,2.894,0,0,1,1.472-2.461,6.232,6.232,0,0,1,3.29-.838c2.679,0,4.636,1.368,4.761,3.327l.035.55h-2.4c1.367.417,2.519,1.216,2.519,2.919C377.077,606.678,375.028,608.116,372.205,608.116Zm-1.081-3.574c.048.287.533.5,1.128.5a1.929,1.929,0,0,0,.951-.194,5.453,5.453,0,0,0-1.692-.4q-.2-.029-.413-.064Zm.143-3.478a6.963,6.963,0,0,0,1.653.371l.231.035-.022-.124c-.043-.247-.481-.433-1.019-.433A1.944,1.944,0,0,0,371.268,601.064Z" transform="translate(-366.732 -597.382)" fill="#f5c1e5"/>
            <path id="패스_4508" data-name="패스 4508" d="M365.291,591.853c2.3,0,4.106,1.106,4.216,2.84H366.8c-.094-.538-.739-.867-1.557-.867-.849,0-1.463.284-1.463.672,0,.434.614.643,2.187.882,2.721.388,3.7,1.241,3.7,2.75,0,1.794-1.982,2.9-4.326,2.9-2.407,0-4.232-1.136-4.326-2.974h2.706c.094.568.787.942,1.667.942.9,0,1.557-.314,1.557-.717s-.629-.687-2.218-.912c-2.2-.314-3.65-.956-3.65-2.735,0-1.7,1.872-2.78,4.216-2.78m0-1.038a6.8,6.8,0,0,0-3.593.926,3.391,3.391,0,0,0-1.715,2.892,3.134,3.134,0,0,0,.98,2.385h-1.1l.056,1.088a3.773,3.773,0,0,0,1.758,2.975,6.56,6.56,0,0,0,3.659.987c3.139,0,5.418-1.656,5.418-3.937a3.1,3.1,0,0,0-1-2.4h.906l-.07-1.1c-.143-2.246-2.325-3.815-5.306-3.815Z" transform="translate(-359.865 -590.815)" fill="#e963d2"/>
          </g>
        </g>
      </g>
    </g>
  </g>
</svg>
