<svg xmlns="http://www.w3.org/2000/svg" width="16" height="16" viewBox="0 0 16 16"><g transform="translate(4102 -6673)"><rect width="16" height="16" transform="translate(-4102 6673)" fill="rgba(116,202,0,0)" opacity="0.3"/><path d="M162.667-824a1.712,1.712,0,0,1-1.256-.522,1.712,1.712,0,0,1-.522-1.256v-11.556H160v-1.778h4.444V-840h5.333v.889h4.444v1.778h-.889v11.556a1.712,1.712,0,0,1-.522,1.256,1.712,1.712,0,0,1-1.256.522Zm8.889-13.333h-8.889v11.556h8.889Zm-7.111,9.778h1.778v-8h-1.778Zm3.556,0h1.778v-8H168Zm-5.333-9.778v0Z" transform="translate(-4261 7513)" fill="#a7b1bb"/></g></svg>