<svg xmlns="http://www.w3.org/2000/svg" width="16" height="16" viewBox="0 0 16 16">
  <g id="ico_docu_add_dis" transform="translate(-650 -369)">
    <rect id="사각형_5524" data-name="사각형 5524" width="16" height="16" transform="translate(650 369)" fill="rgba(255,255,255,0)"/>
    <path id="ico_docu_add" d="M181.333-846a1.285,1.285,0,0,1-.945-.387,1.286,1.286,0,0,1-.387-.945v-11.336a1.285,1.285,0,0,1,.387-.945,1.285,1.285,0,0,1,.945-.387h6.305l3.413,3.413v9.253a1.286,1.286,0,0,1-.387.945,1.286,1.286,0,0,1-.945.387Zm0-1.105h8.389a.217.217,0,0,0,.156-.071.217.217,0,0,0,.071-.156v-8.7h-2.86v-2.862h-5.753a.217.217,0,0,0-.156.071.217.217,0,0,0-.071.156v11.336a.217.217,0,0,0,.071.156.217.217,0,0,0,.154.072Zm4.195-1.027a2.524,2.524,0,0,0,1.893-.8,2.679,2.679,0,0,0,.772-1.925v-3.16h-1.1v3.16a1.614,1.614,0,0,1-.449,1.144,1.459,1.459,0,0,1-1.11.479,1.465,1.465,0,0,1-1.1-.479,1.6,1.6,0,0,1-.454-1.144V-854.9a.551.551,0,0,1,.146-.388.468.468,0,0,1,.357-.158.463.463,0,0,1,.363.158.563.563,0,0,1,.14.388v4.038h1.105V-854.9a1.627,1.627,0,0,0-.464-1.166,1.521,1.521,0,0,0-1.145-.485,1.521,1.521,0,0,0-1.145.485,1.627,1.627,0,0,0-.464,1.166v4.038a2.669,2.669,0,0,0,.777,1.925,2.53,2.53,0,0,0,1.886.8Zm-4.421-10.763Z" transform="translate(472.474 1230)" fill="#c4cdd5"/>
  </g>
</svg>
