<svg xmlns="http://www.w3.org/2000/svg" width="16" height="16" viewBox="0 0 16 16"><g transform="translate(1.184 1)"><rect width="16" height="16" transform="translate(-1.184 -1)" fill="rgba(116,202,0,0)" opacity="0.3"/><path d="M182.489-767.106v-1.381h6.61a3.548,3.548,0,0,0,2.481-.952,3.061,3.061,0,0,0,1.04-2.351,3.048,3.048,0,0,0-1.04-2.347,3.558,3.558,0,0,0-2.481-.948h-6.466l2.563,2.563-.971.97L180-775.775,184.225-780l.971.971-2.563,2.563H189.1a4.886,4.886,0,0,1,3.461,1.349A4.376,4.376,0,0,1,194-771.79a4.39,4.39,0,0,1-1.441,3.331,4.878,4.878,0,0,1-3.461,1.353Z" transform="translate(-180.185 779.999)" fill="#a7b1bb"/></g></svg>