<svg xmlns="http://www.w3.org/2000/svg" width="16" height="16" viewBox="0 0 16 16"><g transform="translate(4434 5152)"><rect width="16" height="16" transform="translate(-4434 -5152)" fill="rgba(255,0,87,0)"/><path d="M8.126,13H3.9a1.3,1.3,0,0,1-1.3-1.3V8.45H1.3a1.257,1.257,0,0,1-.918-.382A1.257,1.257,0,0,1,0,7.151V1.3A1.258,1.258,0,0,1,.382.382,1.26,1.26,0,0,1,1.3,0H9.1a1.261,1.261,0,0,1,.919.382A1.261,1.261,0,0,1,10.4,1.3V4.55h1.3A1.3,1.3,0,0,1,13,5.85V8.126A4.013,4.013,0,0,0,12,8c-.1,0-.2,0-.3.011V5.85H3.9V11.7H8.011C8,11.8,8,11.9,8,12a4.015,4.015,0,0,0,.126,1ZM1.3,1.3v5.85H2.6V5.85a1.3,1.3,0,0,1,1.3-1.3H9.1V1.3Z" transform="translate(-4433 -5151)" fill="#637381"/><path d="M146.4-814.389l-1.136,1.113a.793.793,0,0,1-.558.233.756.756,0,0,1-.578-.233.767.767,0,0,1-.223-.567.766.766,0,0,1,.223-.566l1.136-1.134-1.136-1.133a.766.766,0,0,1-.223-.566.767.767,0,0,1,.223-.567.77.77,0,0,1,.568-.223.77.77,0,0,1,.568.223l1.136,1.133,1.136-1.133a.794.794,0,0,1,.558-.233.757.757,0,0,1,.578.233.767.767,0,0,1,.223.567.766.766,0,0,1-.223.566l-1.116,1.133,1.116,1.134a.789.789,0,0,1,.233.557.752.752,0,0,1-.233.577.77.77,0,0,1-.568.223.77.77,0,0,1-.568-.223Z" transform="translate(-4567.906 -4323.957)" fill="#637381"/></g></svg>