<svg xmlns="http://www.w3.org/2000/svg" width="16" height="16" viewBox="0 0 16 16"><g transform="translate(4583 5152)"><rect width="16" height="16" transform="translate(-4583 -5152)" fill="rgba(255,0,87,0)"/><path d="M121.556-833.778a1.5,1.5,0,0,1-1.1-.457,1.5,1.5,0,0,1-.457-1.1v-3.111a1.5,1.5,0,0,1,.457-1.1,1.5,1.5,0,0,1,1.1-.457h10.889a1.5,1.5,0,0,1,1.1.457,1.5,1.5,0,0,1,.457,1.1v3.111a1.5,1.5,0,0,1-.457,1.1,1.5,1.5,0,0,1-1.1.457Zm0-1.556h10.889v-3.111H121.556Zm0,9.333a1.5,1.5,0,0,1-1.1-.457,1.5,1.5,0,0,1-.457-1.1v-3.111a1.5,1.5,0,0,1,.457-1.1,1.5,1.5,0,0,1,1.1-.457h10.889a1.5,1.5,0,0,1,1.1.457,1.5,1.5,0,0,1,.457,1.1v3.111a1.5,1.5,0,0,1-.457,1.1,1.5,1.5,0,0,1-1.1.457Zm0-1.556h10.889v-3.111H121.556Zm0-7.778v0Zm0,7.778v0Z" transform="translate(-4702 -4311)" fill="#637381"/></g></svg>