<svg xmlns="http://www.w3.org/2000/svg" width="20" height="20" viewBox="0 0 20 20">
  <g id="iCon_sun" transform="translate(-191.488 -107.23)">
    <circle id="타원_408" data-name="타원 408" cx="7.065" cy="7.065" r="7.065" transform="translate(194.423 110.165)" fill="#858f9b"/>
    <g id="그룹_2361" data-name="그룹 2361" transform="translate(191.488 107.23)">
      <path id="패스_4469" data-name="패스 4469" d="M219.923,109.431a.912.912,0,0,1-.912-.912v-.377a.913.913,0,0,1,1.825,0v.377A.912.912,0,0,1,219.923,109.431Z" transform="translate(-209.924 -107.23)" fill="#858f9b"/>
      <path id="패스_4470" data-name="패스 4470" d="M219.923,163.2a.913.913,0,0,1-.912-.913v-.377a.913.913,0,0,1,1.825,0v.377A.913.913,0,0,1,219.923,163.2Z" transform="translate(-209.924 -143.196)" fill="#858f9b"/>
      <path id="패스_4471" data-name="패스 4471" d="M246.541,136.577h-.376a.913.913,0,1,1,0-1.825h.376a.913.913,0,1,1,0,1.825Z" transform="translate(-227.454 -125.665)" fill="#858f9b"/>
      <path id="패스_4472" data-name="패스 4472" d="M192.777,136.577H192.4a.913.913,0,0,1,0-1.825h.377a.913.913,0,1,1,0,1.825Z" transform="translate(-191.488 -125.665)" fill="#858f9b"/>
    </g>
    <g id="그룹_2362" data-name="그룹 2362" transform="translate(192.571 108.313)">
      <path id="패스_4473" data-name="패스 4473" d="M206.351,113.068a.913.913,0,0,1-.791-.457l-.188-.326a.913.913,0,0,1,1.581-.912l.188.326a.913.913,0,0,1-.79,1.369Z" transform="translate(-201.86 -110.917)" fill="#858f9b"/>
      <path id="패스_4474" data-name="패스 4474" d="M233.233,159.629a.912.912,0,0,1-.791-.456l-.189-.326a.913.913,0,0,1,1.581-.913l.188.326a.913.913,0,0,1-.789,1.369Z" transform="translate(-219.7 -141.796)" fill="#858f9b"/>
      <path id="패스_4475" data-name="패스 4475" d="M242.649,123a.913.913,0,0,1-.457-1.7l.326-.188a.913.913,0,1,1,.912,1.581l-.326.188A.909.909,0,0,1,242.649,123Z" transform="translate(-226.054 -117.601)" fill="#858f9b"/>
      <path id="패스_4476" data-name="패스 4476" d="M196.088,149.887a.913.913,0,0,1-.457-1.7l.326-.188a.912.912,0,1,1,.913,1.58l-.326.188A.911.911,0,0,1,196.088,149.887Z" transform="translate(-195.174 -135.442)" fill="#858f9b"/>
    </g>
    <g id="그룹_2363" data-name="그룹 2363" transform="translate(192.571 108.313)">
      <path id="패스_4477" data-name="패스 4477" d="M196.412,123a.907.907,0,0,1-.455-.123l-.326-.188a.913.913,0,0,1,.913-1.581l.326.188a.913.913,0,0,1-.457,1.7Z" transform="translate(-195.174 -117.602)" fill="#858f9b"/>
      <path id="패스_4478" data-name="패스 4478" d="M242.974,149.886a.907.907,0,0,1-.455-.122l-.326-.188a.912.912,0,1,1,.912-1.581l.326.188a.913.913,0,0,1-.457,1.7Z" transform="translate(-226.054 -135.441)" fill="#858f9b"/>
      <path id="패스_4479" data-name="패스 4479" d="M233.042,113.068a.913.913,0,0,1-.789-1.369l.189-.326a.912.912,0,1,1,1.58.913l-.188.326A.913.913,0,0,1,233.042,113.068Z" transform="translate(-219.699 -110.917)" fill="#858f9b"/>
      <path id="패스_4480" data-name="패스 4480" d="M206.16,159.628a.913.913,0,0,1-.789-1.369l.188-.326a.913.913,0,1,1,1.581.912l-.188.326A.913.913,0,0,1,206.16,159.628Z" transform="translate(-201.86 -141.795)" fill="#858f9b"/>
    </g>
  </g>
</svg>
