<svg xmlns="http://www.w3.org/2000/svg" width="16" height="16" viewBox="0 0 16 16"><g transform="translate(4104 -6700)"><rect width="16" height="16" transform="translate(-4104 6700)" fill="rgba(255,255,255,0)"/><path d="M108.684-769.976l1.759-1.344,1.759,1.344-.651-2.181,1.767-1.428h-2.181l-.693-2.139-.693,2.139h-2.181l1.767,1.428Zm-7.161,2.609a1.469,1.469,0,0,1-1.08-.442,1.469,1.469,0,0,1-.442-1.08v-9.587a1.469,1.469,0,0,1,.442-1.08,1.469,1.469,0,0,1,1.08-.442h4.623l1.684,1.684h6.648a1.469,1.469,0,0,1,1.08.442,1.469,1.469,0,0,1,.442,1.08v7.9a1.469,1.469,0,0,1-.442,1.08,1.469,1.469,0,0,1-1.08.442Zm0-1.263h12.955a.252.252,0,0,0,.186-.073.252.252,0,0,0,.073-.186v-7.9a.252.252,0,0,0-.073-.186.252.252,0,0,0-.186-.073h-7.164l-1.684-1.684h-4.107a.252.252,0,0,0-.186.073.252.252,0,0,0-.073.186v9.587a.252.252,0,0,0,.073.186A.252.252,0,0,0,101.523-768.631Zm-.259,0v0Z" transform="translate(-4204.001 7480.999)" fill="#637381"/></g></svg>