<svg xmlns="http://www.w3.org/2000/svg" width="16" height="16" viewBox="0 0 16 16"><g transform="translate(4104 -6700)"><rect width="16" height="16" transform="translate(-4104 6700)" fill="rgba(255,255,255,0)"/><path d="M185.433-847.424l4.466-4.466-.913-.913-3.566,3.566-1.785-1.785-.9.9ZM181.523-844a1.469,1.469,0,0,1-1.08-.442,1.469,1.469,0,0,1-.442-1.08v-12.956a1.469,1.469,0,0,1,.442-1.08,1.469,1.469,0,0,1,1.08-.442h6.688l4.421,4.421v10.057a1.469,1.469,0,0,1-.442,1.08,1.469,1.469,0,0,1-1.08.442Zm6.057-10.947v-3.789h-6.057a.248.248,0,0,0-.178.081.247.247,0,0,0-.081.178v12.956a.248.248,0,0,0,.081.178.248.248,0,0,0,.178.081h9.587a.248.248,0,0,0,.178-.081.248.248,0,0,0,.081-.178v-9.425Zm-6.316-3.789v0Z" transform="translate(-4282.317 7559.999)" fill="#637381"/></g></svg>