<svg xmlns="http://www.w3.org/2000/svg" width="12" height="12" viewBox="0 0 12 12"><g transform="translate(3674 5221)"><rect width="12" height="12" transform="translate(-3674 -5221)" fill="rgba(255,0,87,0)"/><path d="M221-738.148l-2.981,2.981a.577.577,0,0,1-.426.167.577.577,0,0,1-.426-.167.577.577,0,0,1-.167-.426.577.577,0,0,1,.167-.426L220.148-739l-2.981-2.981a.577.577,0,0,1-.167-.426.577.577,0,0,1,.167-.426.577.577,0,0,1,.426-.167.577.577,0,0,1,.426.167L221-739.852l2.981-2.981a.577.577,0,0,1,.426-.167.577.577,0,0,1,.426.167.577.577,0,0,1,.167.426.577.577,0,0,1-.167.426L221.852-739l2.981,2.981a.577.577,0,0,1,.167.426.577.577,0,0,1-.167.426.577.577,0,0,1-.426.167.577.577,0,0,1-.426-.167Z" transform="translate(-3889 -4476)" fill="#637381"/></g></svg>