<svg xmlns="http://www.w3.org/2000/svg" width="16.003" height="16" viewBox="0 0 16.003 16">
  <g id="ico_grid_print" transform="translate(-484.997 -533)">
    <rect id="사각형_5524" data-name="사각형 5524" width="16" height="16" transform="translate(485 533)" fill="rgba(255,255,255,0)"/>
    <path id="패스_6952" data-name="패스 6952" d="M123.013-803.783v-2.6h-6.947v2.6h-1.3v-3.907h9.551v3.907Zm-10.169,1.3Zm11.739,2.171a.84.84,0,0,0,.619-.25.84.84,0,0,0,.25-.619.84.84,0,0,0-.25-.619.84.84,0,0,0-.619-.25.84.84,0,0,0-.619.25.84.84,0,0,0-.25.619.84.84,0,0,0,.25.619.839.839,0,0,0,.619.253Zm-1.57,5.811v-3.7h-6.947v3.707Zm1.3,1.3h-9.551v-3.473h-3.222v-4.943a2.09,2.09,0,0,1,.63-1.547,2.107,2.107,0,0,1,1.541-.624h11.658a2.1,2.1,0,0,1,1.547.624,2.1,2.1,0,0,1,.624,1.547v4.943h-3.222Zm1.921-4.776v-3.64a.841.841,0,0,0-.25-.619.84.84,0,0,0-.619-.25H113.712a.84.84,0,0,0-.619.25.841.841,0,0,0-.25.619v3.64h1.921v-1.537h9.551v1.537Z" transform="translate(373.459 1341.69)" fill="#a7b1bb"/>
  </g>
</svg>
