<svg xmlns="http://www.w3.org/2000/svg" width="16" height="16" viewBox="0 0 16 16"><g transform="translate(-867 -449)"><rect width="16" height="16" transform="translate(867 449)" fill="rgba(255,0,0,0)"/><path d="M34,0a2,2,0,0,0-2,2V14a2,2,0,0,0,2,2h9a2,2,0,0,0,2-2V2a2,2,0,0,0-2-2Zm3.5,9h2A2.5,2.5,0,0,1,42,11.5a.5.5,0,0,1-.5.5h-6a.5.5,0,0,1-.5-.5A2.5,2.5,0,0,1,37.5,9Zm-1-3a2,2,0,1,1,2,2A2,2,0,0,1,36.5,6ZM47,2.5a.5.5,0,0,0-1,0v2a.5.5,0,0,0,1,0ZM46.5,6a.5.5,0,0,0-.5.5v2a.5.5,0,0,0,1,0v-2A.5.5,0,0,0,46.5,6Zm.5,4.5a.5.5,0,0,0-1,0v2a.5.5,0,0,0,1,0Z" transform="translate(836 449)" fill="#a7b1bb"/></g></svg>