<svg xmlns="http://www.w3.org/2000/svg" width="16" height="16" viewBox="0 0 16 16"><g transform="translate(4553 5152)"><rect width="16" height="16" transform="translate(-4553 -5152)" fill="rgba(255,0,87,0)"/><path d="M1.556,6.222a1.5,1.5,0,0,1-1.1-.457A1.5,1.5,0,0,1,0,4.667V1.556A1.5,1.5,0,0,1,.457.457,1.5,1.5,0,0,1,1.556,0H12.444a1.5,1.5,0,0,1,1.1.457A1.5,1.5,0,0,1,14,1.556V4.667a1.56,1.56,0,0,1-1.556,1.556Zm0-1.556H12.444V1.556H1.556Zm0,9.333a1.5,1.5,0,0,1-1.1-.457A1.5,1.5,0,0,1,0,12.444V9.333a1.5,1.5,0,0,1,.457-1.1,1.5,1.5,0,0,1,1.1-.457H12.444A1.56,1.56,0,0,1,14,9.333v3.111A1.56,1.56,0,0,1,12.444,14Zm0-1.556H12.444V9.333H1.556Zm0-7.778v0Zm0,7.778v0Z" transform="translate(-4538 -5151) rotate(90)" fill="#637381"/></g></svg>