<svg xmlns="http://www.w3.org/2000/svg" width="17.222" height="18" viewBox="0 0 17.222 18">
  <g id="iCon_moon" transform="translate(-58.877 -253.921)">
    <path id="패스_4468" data-name="패스 4468" d="M66.247,260.521a6.86,6.86,0,0,1,4.065-6.264,9,9,0,1,0,5.721,12.47,6.861,6.861,0,0,1-9.785-6.206Z" transform="translate(0 0)" fill="#858f9b"/>
    <path id="패스_4493" data-name="패스 4493" d="M376.886,257.637a.34.34,0,0,0-.275-.231l-1.393-.2-.623-1.262a.339.339,0,0,0-.608,0l-.624,1.262-1.392.2a.339.339,0,0,0-.188.579l1.007.983-.238,1.387a.34.34,0,0,0,.493.358l1.245-.655,1.246.655a.335.335,0,0,0,.158.039.34.34,0,0,0,.335-.4l-.238-1.387,1.008-.983A.34.34,0,0,0,376.886,257.637Z" transform="translate(-300.803 2.169)" fill="#858f9b"/>
  </g>
</svg>
