<svg xmlns="http://www.w3.org/2000/svg" width="16" height="16" viewBox="0 0 16 16"><g transform="translate(4104 -6700)"><rect width="16" height="16" transform="translate(-4104 6700)" fill="rgba(255,255,255,0)"/><path d="M144.795-854.785v-1.263h7.255v1.263Zm0,2.429v-1.263h7.255v1.263Zm2.3,7.093h0Zm0,1.263h-4.988a2.033,2.033,0,0,1-1.494-.611A2.032,2.032,0,0,1,140-846.1v-2.429h2.526V-860h11.789v7.122a2.752,2.752,0,0,0-.642.04,2.775,2.775,0,0,0-.621.19v-6.089H143.79v10.2h4.777L147.3-847.27h-6.041v1.166a.815.815,0,0,0,.242.6.815.815,0,0,0,.6.242h4.988Zm1.846,0v-2.225l4.572-4.551a.905.905,0,0,1,.34-.221,1.1,1.1,0,0,1,.366-.064,1.026,1.026,0,0,1,.383.075.99.99,0,0,1,.336.223l.779.787a1.219,1.219,0,0,1,.211.34.964.964,0,0,1,.074.366,1.1,1.1,0,0,1-.068.372.984.984,0,0,1-.217.347L151.165-844Zm6.057-5.27-.779-.787ZM149.944-845h.8l2.734-2.747-.387-.4-.392-.4-2.755,2.742Zm3.147-3.147-.392-.4.779.8Z" transform="translate(-4244.001 7559.999)" fill="#637381"/></g></svg>