<svg xmlns="http://www.w3.org/2000/svg" width="16" height="16.049" viewBox="0 0 16 16.049"><g transform="translate(4104 -6700)"><rect width="16" height="16" transform="translate(-4104 6700)" fill="rgba(255,255,255,0)"/><path d="M152.212-807.74a1.218,1.218,0,0,0,.895-.368,1.218,1.218,0,0,0,.368-.895,1.218,1.218,0,0,0-.368-.895,1.218,1.218,0,0,0-.895-.368,1.218,1.218,0,0,0-.895.368,1.218,1.218,0,0,0-.368.895,1.218,1.218,0,0,0,.368.895A1.218,1.218,0,0,0,152.212-807.74Zm0,2.526a2.449,2.449,0,0,0,1.179-.295,2.537,2.537,0,0,0,.905-.821,3.749,3.749,0,0,0-1.011-.432,4.249,4.249,0,0,0-1.074-.137,4.249,4.249,0,0,0-1.074.137,3.75,3.75,0,0,0-1.011.432,2.537,2.537,0,0,0,.905.821A2.449,2.449,0,0,0,152.212-805.214Zm-10.688-.47a1.467,1.467,0,0,1-1.076-.446,1.466,1.466,0,0,1-.446-1.076v-11.271a1.466,1.466,0,0,1,.446-1.076,1.467,1.467,0,0,1,1.076-.446h11.271a1.467,1.467,0,0,1,1.076.446,1.466,1.466,0,0,1,.446,1.076v5.326a5.722,5.722,0,0,0-.623-.225,5.387,5.387,0,0,0-.64-.147v-4.954a.248.248,0,0,0-.081-.178.248.248,0,0,0-.178-.081H141.523a.248.248,0,0,0-.178.081.248.248,0,0,0-.081.178v11.271a.248.248,0,0,0,.081.178.248.248,0,0,0,.178.081h4.933a4.38,4.38,0,0,0,.139.661,4.529,4.529,0,0,0,.225.6Zm-.259-2.105v0Zm1.895-1.15h3.383a3.907,3.907,0,0,1,.164-.641q.109-.312.236-.623h-3.783Zm0-3.271H148.5a5.916,5.916,0,0,1,1.161-.773,4.9,4.9,0,0,1,1.321-.443v-.047h-7.822Zm0-3.271h8v-1.263h-8Zm9.053,11.53a3.654,3.654,0,0,1-2.683-1.106,3.654,3.654,0,0,1-1.106-2.683,3.654,3.654,0,0,1,1.106-2.683,3.654,3.654,0,0,1,2.683-1.106,3.654,3.654,0,0,1,2.683,1.106A3.654,3.654,0,0,1,156-807.74a3.654,3.654,0,0,1-1.106,2.683A3.654,3.654,0,0,1,152.212-803.95Z" transform="translate(-4244.001 7519.999)" fill="#637381"/></g></svg>