<svg xmlns="http://www.w3.org/2000/svg" width="12" height="12" viewBox="0 0 12 12"><rect width="12" height="12" fill="rgba(255,0,87,0)"/><path d="M81-870a.963.963,0,0,1-.706-.294A.963.963,0,0,1,80-871v-4.5a.963.963,0,0,1,.294-.706A.963.963,0,0,1,81-876.5h1V-879a.963.963,0,0,1,.294-.706A.963.963,0,0,1,83-880h6a.963.963,0,0,1,.706.294A.963.963,0,0,1,90-879v4.5a.963.963,0,0,1-.294.706A.963.963,0,0,1,89-873.5H88v2.5a.963.963,0,0,1-.294.706A.963.963,0,0,1,87-870Zm0-1h6v-3.5H81Zm7-3.5h1V-878H83v1.5h4a.963.963,0,0,1,.706.294A.963.963,0,0,1,88-875.5Z" transform="translate(-79 881)" fill="#637381"/></svg>