<svg xmlns="http://www.w3.org/2000/svg" width="16" height="16" viewBox="0 0 16 16"><g transform="translate(4523 5152)"><rect width="16" height="16" transform="translate(-4523 -5152)" fill="rgba(255,0,87,0)"/><path d="M87-866a1.348,1.348,0,0,1-.989-.411,1.348,1.348,0,0,1-.411-.989V-873a1.348,1.348,0,0,1,.411-.989A1.348,1.348,0,0,1,87-874.4h5.6a1.348,1.348,0,0,1,.989.411A1.348,1.348,0,0,1,94-873v5.6a1.348,1.348,0,0,1-.411.989A1.348,1.348,0,0,1,92.6-866Zm0-1.4h5.6V-873H87Zm-4.2-2.1v-6.3a1.348,1.348,0,0,1,.411-.989,1.348,1.348,0,0,1,.989-.411h6.3a.677.677,0,0,1,.5.2.677.677,0,0,1,.2.5.677.677,0,0,1-.2.5.677.677,0,0,1-.5.2H84.2v6.3a.678.678,0,0,1-.2.5.678.678,0,0,1-.5.2.678.678,0,0,1-.5-.2A.678.678,0,0,1,82.8-869.5ZM80-872.3v-6.3a1.348,1.348,0,0,1,.411-.989A1.348,1.348,0,0,1,81.4-880h6.3a.677.677,0,0,1,.5.2.677.677,0,0,1,.2.5.677.677,0,0,1-.2.5.677.677,0,0,1-.5.2H81.4v6.3a.677.677,0,0,1-.2.5.677.677,0,0,1-.5.2.677.677,0,0,1-.5-.2A.677.677,0,0,1,80-872.3Zm7,4.9v0Z" transform="translate(-4602 -4271)" fill="#637381"/></g></svg>