<svg xmlns="http://www.w3.org/2000/svg" width="92.217" height="57.847" viewBox="0 0 92.217 57.847"><g transform="translate(-427.168 -246.991)"><g transform="translate(427.168 288.428)"><g transform="translate(0)"><path d="M427.168,777.713h4.76c3.224,0,5.11,1.795,5.11,4.532,0,2.768-1.886,4.563-5.11,4.563h-1.992v3.3h-2.768Zm4.639,6.646c1.536,0,2.464-.73,2.464-2.114,0-1.369-.928-2.084-2.464-2.084h-1.871v4.2Z" transform="translate(-427.168 -777.409)" fill="#b4221b"/><path d="M572.562,777.713h4.806c4.106,0,6.646,2.54,6.646,6.205s-2.54,6.19-6.646,6.19h-4.806Zm4.852,9.946a3.75,3.75,0,1,0,0-7.5H575.33v7.5Z" transform="translate(-561.582 -777.409)" fill="#b4221b"/><path d="M741.115,777.713h9.095v2.433h-6.327v2.814h5.627v2.4h-5.627v4.745h-2.768Z" transform="translate(-717.506 -777.409)" fill="#b4221b"/><path d="M879.362,777.732H876.5a2.057,2.057,0,0,0-2.3-1.734c-1.293,0-2.008.517-2.008,1.262,0,.928.958,1.247,3.376,1.749,2.859.593,3.833,2.008,3.833,3.863,0,2.373-2.236,3.818-5,3.818-3.057,0-5.293-1.658-5.414-4.3h2.844c.152,1.186,1.186,1.977,2.768,1.977,1.126,0,1.962-.563,1.962-1.369,0-.989-.836-1.384-3.042-1.795-2.692-.5-4.152-1.612-4.152-3.939,0-2.236,2.22-3.574,5.019-3.574C877.157,773.686,879.226,775.374,879.362,777.732Z" transform="translate(-835.768 -773.686)" fill="#b4221b"/><path d="M1023.288,829.224a3,3,0,0,1-2.555,1.125,4.682,4.682,0,0,1,0-9.338,3.005,3.005,0,0,1,2.555,1.125v-.913h2.707v12.623h-2.707Zm.046-3.544a2.16,2.16,0,0,0-2.175-2.357,2.371,2.371,0,0,0,0,4.715A2.16,2.16,0,0,0,1023.333,825.68Z" transform="translate(-972.089 -817.437)" fill="#b4221b"/><path d="M1163.6,828.987v-5.156h2.707v4.7c0,1.354.547,2.1,1.566,2.1,1.065,0,1.7-.837,1.7-2.221v-4.578h2.707v8.912h-2.707v-.913a2.925,2.925,0,0,1-2.495,1.125C1165.019,832.956,1163.6,831.451,1163.6,828.987Z" transform="translate(-1108.224 -820.044)" fill="#b4221b"/><path d="M1294.5,825.68a4.337,4.337,0,0,1,4.335-4.669,3.005,3.005,0,0,1,2.555,1.125v-.913h2.707v8.912h-2.707v-.912a3,3,0,0,1-2.555,1.125A4.337,4.337,0,0,1,1294.5,825.68Zm6.935,0a2.16,2.16,0,0,0-2.175-2.357,2.372,2.372,0,0,0,0,4.715A2.16,2.16,0,0,0,1301.433,825.68Z" transform="translate(-1229.277 -817.437)" fill="#b4221b"/><path d="M1443.516,821.224h2.707v.913a2.925,2.925,0,0,1,2.494-1.125,3.317,3.317,0,0,1,1.171.152l.031,2.54a3,3,0,0,0-1.384-.3,2.069,2.069,0,0,0-2.312,2.175v4.563h-2.707Z" transform="translate(-1367.116 -817.437)" fill="#b4221b"/><path d="M1530.108,825.68a4.639,4.639,0,1,1,9.277,0,6.086,6.086,0,0,1-.061.867H1532.8a1.883,1.883,0,0,0,1.947,1.627,1.835,1.835,0,0,0,1.643-.7h2.722a4.287,4.287,0,0,1-4.365,2.874A4.472,4.472,0,0,1,1530.108,825.68Zm6.631-.882a1.9,1.9,0,0,0-1.992-1.643,1.866,1.866,0,0,0-1.962,1.643Z" transform="translate(-1447.169 -817.437)" fill="#b4221b"/></g></g><g transform="translate(457.389 249.02)"><g transform="translate(0 0)"><rect width="19.687" height="19.687" transform="translate(15.412 1.507) rotate(45)" fill="none" stroke="rgba(142,202,233,0.08)" stroke-miterlimit="10" stroke-width="5"/><rect width="30.882" height="30.882" rx="6" fill="#b4221b"/><path d="M863.709,268.974l-13.921,13.921,13.921,13.921,13.92-13.921Zm-13.1,13.921,13.1-13.105,13.1,13.105L863.709,296Z" transform="translate(-848.267 -267.467)" fill="#c23c32"/></g><g transform="translate(17.221 13.237)"><path d="M1069.928,441.918c-2.751,0-4.669-1.437-4.773-3.576l-.027-.561h2.519a3.016,3.016,0,0,1-.988-5.532,5.872,5.872,0,0,1,3.224-.864c2.625,0,4.543,1.411,4.665,3.432l.034.567h-2.347a3.041,3.041,0,0,1,2.468,3.01C1074.7,440.435,1072.694,441.918,1069.928,441.918Zm-1.059-3.686c.047.3.522.519,1.105.519a1.812,1.812,0,0,0,.932-.2,5.139,5.139,0,0,0-1.658-.415q-.2-.03-.4-.066Zm.141-3.587a6.549,6.549,0,0,0,1.62.383l.226.036-.021-.128c-.042-.255-.472-.447-1-.447A1.82,1.82,0,0,0,1069.01,434.645Z" transform="translate(-1064.565 -430.848)" fill="#ea554e"/><path d="M1063,425.367c2.25,0,4.023,1.141,4.131,2.929h-2.651c-.092-.555-.724-.894-1.526-.894-.832,0-1.434.293-1.434.694,0,.447.6.663,2.142.909,2.667.4,3.622,1.279,3.622,2.836,0,1.85-1.942,2.99-4.239,2.99-2.358,0-4.146-1.171-4.239-3.067h2.651c.093.586.771.971,1.634.971.878,0,1.526-.324,1.526-.74,0-.432-.617-.709-2.173-.94-2.158-.324-3.576-.986-3.576-2.821,0-1.757,1.834-2.867,4.131-2.867m0-1.07a6.409,6.409,0,0,0-3.52.954,3.534,3.534,0,0,0-1.681,2.983,3.318,3.318,0,0,0,.96,2.459h-1.075l.055,1.123a3.931,3.931,0,0,0,1.723,3.068,6.187,6.187,0,0,0,3.585,1.018c3.076,0,5.309-1.708,5.309-4.061a3.275,3.275,0,0,0-.976-2.475h.888l-.068-1.135c-.14-2.317-2.278-3.935-5.2-3.935Z" transform="translate(-1057.685 -424.297)" fill="#b4221b"/></g><g transform="translate(3.669 6.017)"><path d="M886.743,354.678V337.194h6.513a7.036,7.036,0,0,1,5.03,1.8,7.152,7.152,0,0,1,0,9.562,7.017,7.017,0,0,1-5.031,1.808H891.4v4.313Zm6.365-8.8c1.564,0,2.357-.714,2.357-2.121,0-1.381-.793-2.081-2.357-2.081H891.4v4.2Z" transform="translate(-886.101 -336.552)" fill="#fffdfd"/><path d="M885.394,329.974c3.925,0,6.221,2.345,6.221,5.923,0,3.618-2.3,5.963-6.221,5.963h-2.5v4.313h-3.37v-16.2h5.871m-2.5,8.686h2.353c1.87,0,3-.954,3-2.763,0-1.789-1.129-2.723-3-2.723h-2.353v5.486m2.5-9.971h-7.155v18.768h5.939v-4.313h1.216c4.56,0,7.505-2.845,7.505-7.248a7.071,7.071,0,0,0-2.028-5.225,7.661,7.661,0,0,0-5.477-1.983Zm-1.216,5.769h1.068c1.507,0,1.715.691,1.715,1.439,0,.768-.208,1.478-1.715,1.478h-1.068v-2.917Z" transform="translate(-878.239 -328.69)" fill="#b4221b"/></g></g></g></svg>