<svg xmlns="http://www.w3.org/2000/svg" xmlns:xlink="http://www.w3.org/1999/xlink" width="27.31" height="18.935" viewBox="0 0 27.31 18.935">
  <defs>
    <linearGradient id="linear-gradient" x1="0.54" y1="0.477" x2="0.404" y2="-0.396" gradientUnits="objectBoundingBox">
      <stop offset="0" stop-color="#006fdf"/>
      <stop offset="1" stop-color="#3fa9f5"/>
    </linearGradient>
    <linearGradient id="linear-gradient-2" y1="0.5" x2="1" y2="0.5" gradientUnits="objectBoundingBox">
      <stop offset="0" stop-color="#114194"/>
      <stop offset="1" stop-color="#111259"/>
    </linearGradient>
  </defs>
  <g id="그룹_1337" data-name="그룹 1337" transform="translate(0 0)">
    <g id="그룹_1336" data-name="그룹 1336">
      <path id="패스_3319" data-name="패스 3319" d="M708.045,52.284l-.49-5.386h-5.724l1.14,12.343A16.339,16.339,0,0,1,708.045,52.284Z" transform="translate(-701.831 -46.898)" fill="url(#linear-gradient)"/>
    </g>
    <path id="패스_3320" data-name="패스 3320" d="M733.713,46.961H728.25a36.99,36.99,0,0,1-.157,6.184c-.533,4.45-2.242,7.291-3.437,7.128-.924-.126-.924-.892-1.69-2.934-1.165-3.106-2.807-4.339-4.483-4.61-.154-.025-.309-.044-.463-.055-4.138-.3-8.337,4.832-9.526,11.782q-.117.686-.19,1.361h5.715q.03-.191.063-.384c.709-4.14,2.236-7.238,3.437-7.128.6.055.966,1.525,1.054,1.815.933,3.1,2.758,5.283,5.146,5.692l.032,0c4.273.7,8.727-4.539,9.958-11.731A25.174,25.174,0,0,0,733.713,46.961Z" transform="translate(-706.654 -46.945)" fill="url(#linear-gradient-2)"/>
  </g>
</svg>
