<svg xmlns="http://www.w3.org/2000/svg" width="81.649" height="56.303" viewBox="0 0 81.649 56.303"><g transform="translate(-502.079 -248.506)"><g transform="translate(502.079 288.32)"><g transform="translate(0 0)"><path d="M502.079,777.2h4.829c4.126,0,6.678,2.552,6.678,6.235s-2.552,6.22-6.678,6.22h-4.829Zm4.875,9.994a3.768,3.768,0,1,0,0-7.534H504.86v7.534Z" transform="translate(-502.079 -776.893)" fill="#870e54"/><path d="M649.184,783.373,645.2,777.2h3.3L651,781.264l2.583-4.065h3.163l-4,6.082,4.141,6.373h-3.255l-2.674-4.294-2.735,4.294h-3.163Z" transform="translate(-634.208 -776.893)" fill="#870e54"/><path d="M804.5,777.237h-2.873a2.067,2.067,0,0,0-2.308-1.742c-1.3,0-2.017.52-2.017,1.268,0,.932.963,1.253,3.393,1.758,2.873.6,3.851,2.017,3.851,3.882,0,2.384-2.247,3.836-5.028,3.836-3.072,0-5.318-1.666-5.44-4.325h2.858c.153,1.192,1.192,1.987,2.781,1.987,1.131,0,1.971-.565,1.971-1.375,0-.993-.84-1.391-3.056-1.8-2.7-.5-4.172-1.62-4.172-3.958,0-2.246,2.231-3.591,5.043-3.591C802.285,773.172,804.364,774.868,804.5,777.237Z" transform="translate(-771.921 -773.172)" fill="#870e54"/><path d="M948.411,828.749a3.02,3.02,0,0,1-2.567,1.131,4.7,4.7,0,0,1,0-9.383,3.019,3.019,0,0,1,2.567,1.131v-.917h2.72V833.4h-2.72Zm.046-3.561a2.17,2.17,0,0,0-2.185-2.369,2.383,2.383,0,0,0,0,4.737A2.17,2.17,0,0,0,948.457,825.189Z" transform="translate(-908.144 -816.906)" fill="#870e54"/><path d="M1088.693,828.5v-5.181h2.72v4.722c0,1.36.55,2.109,1.574,2.109,1.07,0,1.711-.84,1.711-2.231v-4.6h2.72v8.955h-2.72v-.917a2.938,2.938,0,0,1-2.506,1.131C1090.114,832.487,1088.693,830.974,1088.693,828.5Z" transform="translate(-1044.178 -819.513)" fill="#870e54"/><path d="M1219.587,825.189a4.358,4.358,0,0,1,4.355-4.692,3.02,3.02,0,0,1,2.568,1.131v-.917h2.72v8.955h-2.72v-.917a3.02,3.02,0,0,1-2.568,1.131A4.358,4.358,0,0,1,1219.587,825.189Zm6.969,0a2.17,2.17,0,0,0-2.185-2.369,2.383,2.383,0,0,0,0,4.737A2.17,2.17,0,0,0,1226.556,825.189Z" transform="translate(-1165.14 -816.906)" fill="#870e54"/><path d="M1368.605,820.711h2.72v.917a2.938,2.938,0,0,1,2.506-1.131,3.332,3.332,0,0,1,1.177.153l.031,2.552a3.012,3.012,0,0,0-1.391-.306,2.079,2.079,0,0,0-2.323,2.185v4.585h-2.72Z" transform="translate(-1302.849 -816.906)" fill="#870e54"/><path d="M1455.2,825.189a4.661,4.661,0,1,1,9.322,0,6.132,6.132,0,0,1-.061.871H1457.9a1.892,1.892,0,0,0,1.956,1.635,1.844,1.844,0,0,0,1.651-.7h2.736a4.307,4.307,0,0,1-4.386,2.888A4.494,4.494,0,0,1,1455.2,825.189Zm6.663-.886a1.9,1.9,0,0,0-2-1.65,1.875,1.875,0,0,0-1.971,1.65Z" transform="translate(-1382.871 -816.906)" fill="#870e54"/></g></g><g transform="translate(527.388 248.506)"><g transform="translate(0 0)"><rect width="31.031" height="31.031" rx="6" fill="#870e54"/><path d="M869.721,272.959l-13.988,13.988,13.988,13.988,13.988-13.988Zm-13.168,13.988,13.168-13.168,13.168,13.168-13.168,13.168Z" transform="translate(-854.205 -271.103)" fill="#993b5f"/></g><g transform="translate(17.456 13.353)"><path d="M1077.895,442.148c-2.764,0-4.692-1.444-4.8-3.594l-.027-.564h2.531a3.031,3.031,0,0,1-.993-5.559,5.9,5.9,0,0,1,3.239-.869c2.638,0,4.565,1.418,4.688,3.448l.034.57h-2.359a3.056,3.056,0,0,1,2.48,3.024C1082.692,440.659,1080.674,442.148,1077.895,442.148Zm-1.064-3.7c.047.3.524.522,1.111.522a1.822,1.822,0,0,0,.937-.2,5.16,5.16,0,0,0-1.666-.417q-.2-.03-.407-.066Zm.141-3.6a6.586,6.586,0,0,0,1.627.384l.227.036-.022-.129c-.043-.256-.474-.449-1-.449A1.831,1.831,0,0,0,1076.972,434.841Z" transform="translate(-1072.506 -431.025)" fill="#b15288"/><path d="M1070.972,425.553c2.261,0,4.042,1.146,4.151,2.943h-2.664c-.093-.558-.728-.9-1.533-.9-.836,0-1.441.294-1.441.7,0,.449.6.666,2.153.914,2.679.4,3.64,1.286,3.64,2.85,0,1.859-1.951,3-4.259,3-2.37,0-4.166-1.177-4.259-3.082h2.664c.093.589.774.976,1.642.976.883,0,1.533-.325,1.533-.743,0-.434-.62-.712-2.184-.945-2.168-.325-3.593-.991-3.593-2.834,0-1.766,1.843-2.881,4.151-2.881m0-1.076a6.438,6.438,0,0,0-3.537.959,3.55,3.55,0,0,0-1.689,3,3.334,3.334,0,0,0,.965,2.471h-1.08l.055,1.128a3.949,3.949,0,0,0,1.731,3.083,6.218,6.218,0,0,0,3.6,1.022c3.091,0,5.335-1.716,5.335-4.08a3.292,3.292,0,0,0-.981-2.487h.892l-.069-1.14c-.14-2.328-2.289-3.953-5.224-3.953Z" transform="translate(-1065.63 -424.477)" fill="#870e54"/></g><g transform="translate(3.307 6.034)"><path d="M887.687,354.1V336.53h4.931a8.711,8.711,0,0,1,6.41,2.463,9.641,9.641,0,0,1,0,12.652,8.726,8.726,0,0,1-6.409,2.453Zm4.986-4.506c2.607,0,4.043-1.516,4.043-4.268,0-2.725-1.474-4.288-4.043-4.288h-.31v8.556Z" transform="translate(-887.042 -335.885)" fill="#fffdfd"/><path d="M884.759,329.317c5.023,0,8.13,3.335,8.13,8.149s-3.107,8.129-8.13,8.129h-4.285V329.317h4.285m-.9,13.062h.955c2.9,0,4.688-1.777,4.688-4.913s-1.786-4.933-4.688-4.933h-.955v9.847m.9-14.353h-5.576v18.859h5.576c5.635,0,9.421-3.785,9.421-9.419a10.7,10.7,0,0,0-.646-3.756,8.589,8.589,0,0,0-1.9-3.026,9.341,9.341,0,0,0-6.871-2.657Zm.391,13.052v-7.246c2.52.153,3.062,2.039,3.062,3.633s-.542,3.461-3.062,3.613Z" transform="translate(-879.183 -328.026)" fill="#870e54"/></g></g></g></svg>