<svg xmlns="http://www.w3.org/2000/svg" width="94.864" height="57.863" viewBox="0 0 94.864 57.863"><g transform="translate(489.766 320.348)"><g transform="translate(-489.766 -279.496)"><path d="M417.528,781.373h-2.838a2.042,2.042,0,0,0-2.279-1.721c-1.283,0-1.992.513-1.992,1.253,0,.921.951,1.238,3.351,1.736,2.838.589,3.8,1.992,3.8,3.834,0,2.355-2.219,3.789-4.966,3.789-3.034,0-5.253-1.645-5.374-4.272h2.823c.151,1.177,1.177,1.962,2.747,1.962,1.117,0,1.947-.559,1.947-1.359,0-.981-.83-1.374-3.019-1.781-2.672-.5-4.121-1.6-4.121-3.909,0-2.219,2.2-3.547,4.981-3.547C415.34,777.358,417.392,779.033,417.528,781.373Z" transform="translate(-407.234 -776.845)" fill="#cc26af"/><path d="M559.946,772.156a1.645,1.645,0,1,1-1.645-1.645A1.594,1.594,0,0,1,559.946,772.156Zm-.3,11.5h-2.687v-8.875h2.687Z" transform="translate(-545.456 -770.511)" fill="#cc26af"/><path d="M613.041,834.434h2.717c.136.573.649.936,1.645.936a1.747,1.747,0,0,0,1.872-1.826v-.936a2.982,2.982,0,0,1-2.536,1.117,4.526,4.526,0,0,1,0-9.041,2.982,2.982,0,0,1,2.536,1.117v-.906h2.687v8.679c0,2.4-1.917,4.06-4.558,4.06S613.328,836.14,613.041,834.434Zm6.279-5.193a2.1,2.1,0,0,0-2.159-2.264,2.271,2.271,0,0,0,0,4.528A2.1,2.1,0,0,0,619.32,829.241Z" transform="translate(-597.057 -820.623)" fill="#cc26af"/><path d="M761.453,824.894h2.687v.906a2.9,2.9,0,0,1,2.475-1.117c2.053,0,3.457,1.494,3.457,3.94v5.117h-2.687v-4.664c0-1.343-.543-2.083-1.555-2.083-1.057,0-1.691.83-1.691,2.2v4.543h-2.687Z" transform="translate(-734.903 -820.623)" fill="#cc26af"/><path d="M899.219,781.373h-2.838a2.042,2.042,0,0,0-2.279-1.721c-1.283,0-1.992.513-1.992,1.253,0,.921.951,1.238,3.351,1.736,2.838.589,3.8,1.992,3.8,3.834,0,2.355-2.219,3.789-4.966,3.789-3.034,0-5.253-1.645-5.373-4.272h2.823c.151,1.177,1.177,1.962,2.747,1.962,1.117,0,1.947-.559,1.947-1.359,0-.981-.83-1.374-3.019-1.781-2.672-.5-4.121-1.6-4.121-3.909,0-2.219,2.2-3.547,4.981-3.547C897.031,777.358,899.083,779.033,899.219,781.373Z" transform="translate(-852.821 -776.845)" fill="#cc26af"/><path d="M1043.171,832.834a2.983,2.983,0,0,1-2.536,1.117,4.647,4.647,0,0,1,0-9.268,2.982,2.982,0,0,1,2.536,1.117v-.906h2.687v12.528h-2.687Zm.045-3.517a2.143,2.143,0,0,0-2.158-2.339,2.353,2.353,0,0,0,0,4.679A2.144,2.144,0,0,0,1043.216,829.317Z" transform="translate(-989.181 -820.623)" fill="#cc26af"/><path d="M1183.538,832.621V827.5h2.687v4.664c0,1.344.544,2.083,1.554,2.083,1.057,0,1.691-.83,1.691-2.2V827.5h2.687v8.845h-2.687v-.906a2.9,2.9,0,0,1-2.475,1.117C1184.942,836.561,1183.538,835.066,1183.538,832.621Z" transform="translate(-1125.352 -823.232)" fill="#cc26af"/><path d="M1314.433,829.317a4.3,4.3,0,0,1,4.3-4.634,2.982,2.982,0,0,1,2.536,1.117v-.906h2.687v8.845h-2.687v-.905a2.983,2.983,0,0,1-2.536,1.117A4.3,4.3,0,0,1,1314.433,829.317Zm6.883,0a2.143,2.143,0,0,0-2.158-2.339,2.353,2.353,0,0,0,0,4.679A2.144,2.144,0,0,0,1321.316,829.317Z" transform="translate(-1246.436 -820.623)" fill="#cc26af"/><path d="M1463.45,824.894h2.687v.906a2.9,2.9,0,0,1,2.475-1.117,3.3,3.3,0,0,1,1.162.151l.03,2.521a2.977,2.977,0,0,0-1.374-.3,2.053,2.053,0,0,0-2.294,2.158v4.528h-2.687Z" transform="translate(-1384.284 -820.623)" fill="#cc26af"/><path d="M1550.043,829.317a4.6,4.6,0,1,1,9.207,0,6.043,6.043,0,0,1-.06.86h-6.475a1.869,1.869,0,0,0,1.932,1.615,1.82,1.82,0,0,0,1.63-.695h2.7a4.254,4.254,0,0,1-4.332,2.853A4.439,4.439,0,0,1,1550.043,829.317Zm6.581-.875a1.881,1.881,0,0,0-1.977-1.63,1.852,1.852,0,0,0-1.947,1.63Z" transform="translate(-1464.387 -820.623)" fill="#cc26af"/></g><g transform="translate(-457.818 -318.308)"><rect width="19.539" height="19.539" transform="translate(15.296 1.496) rotate(45)" fill="none" stroke="rgba(142,202,233,0.08)" stroke-miterlimit="10" stroke-width="5"/><g transform="translate(0 0)"><rect width="30.65" height="30.65" rx="6" fill="#cc26af"/></g><path d="M867.432,272.646l-13.816,13.816,13.816,13.816,13.816-13.816Zm-13.006,13.816,13.006-13.007,13.007,13.007-13.007,13.006Z" transform="translate(-852.107 -271.15)" fill="#e040af"/><g transform="translate(2.267 5.507)"><path d="M879.8,352.807c-4.135,0-7.02-2.489-7.179-6.193l-.029-.665h4.667l.067.562c.15,1.254,1.163,2,2.711,2,1,0,1.733-.479,1.733-1.138,0-.627-.227-1.116-3.163-1.7-2.374-.475-5.529-1.586-5.529-5.735,0-3.1,2.756-5.273,6.7-5.273,3.667,0,6.462,2.461,6.645,5.851l.036.672h-4.679l-.079-.546a1.923,1.923,0,0,0-2.144-1.7c-.42,0-1.788.072-1.788,1,0,.666.77,1.02,3.581,1.647a6.943,6.943,0,0,1,3.958,2.1,5.293,5.293,0,0,1,1.171,3.532,5.14,5.14,0,0,1-2.014,4.132A7.594,7.594,0,0,1,879.8,352.807Z" transform="translate(-871.932 -334.028)" fill="#fffdfd"/><path d="M871.575,327.437c3.344,0,5.843,2.19,6.009,5.248h-3.455a2.528,2.528,0,0,0-2.775-2.249c-1.562,0-2.426.671-2.426,1.637,0,1.2,1.158,1.618,4.079,2.269,3.455.769,4.631,2.6,4.631,5.011,0,3.078-2.7,4.952-6.046,4.952-3.693,0-6.395-2.15-6.542-5.583h3.436c.184,1.539,1.433,2.565,3.344,2.565,1.36,0,2.37-.73,2.37-1.776,0-1.282-1.011-1.8-3.675-2.328-3.253-.651-5.017-2.091-5.017-5.109,0-2.9,2.683-4.636,6.064-4.636m0-1.275a8.62,8.62,0,0,0-5.051,1.475,5.379,5.379,0,0,0-2.288,4.436,5.8,5.8,0,0,0,1.678,4.359,6.2,6.2,0,0,0,1.42,1.014h-3.613l.057,1.329a7.125,7.125,0,0,0,.691,2.822,6.552,6.552,0,0,0,1.705,2.18,8.95,8.95,0,0,0,10.48.21,5.765,5.765,0,0,0,2.259-4.635,5.911,5.911,0,0,0-1.323-3.944,6.073,6.073,0,0,0-1.847-1.449h3.185l-.073-1.344c-.2-3.739-3.265-6.453-7.282-6.453Zm-1.369,5.956c0-.01,0-.024,0-.045,0-.05,0-.078.084-.138a1.878,1.878,0,0,1,1.066-.225c1.193,0,1.435.618,1.513,1.156l.02.141a18.411,18.411,0,0,1-1.991-.541,1.967,1.967,0,0,1-.692-.349Zm1.626,7.893c-.573,0-1.923-.14-2.079-1.441l-.031-.259q.27.065.555.122a9.323,9.323,0,0,1,2.426.723c.224.136.224.187.224.355,0,.271-.5.5-1.1.5Z" transform="translate(-863.721 -326.162)" fill="#cc26af"/></g><g transform="translate(17.062 13.137)"><path d="M1073.326,445.511c-2.73,0-4.634-1.426-4.738-3.55l-.027-.557h2.5a2.994,2.994,0,0,1-.981-5.491,5.828,5.828,0,0,1,3.2-.858c2.6,0,4.509,1.4,4.63,3.406l.034.563h-2.33a3.018,3.018,0,0,1,2.45,2.987C1078.064,444.04,1076.071,445.511,1073.326,445.511Zm-1.051-3.658c.046.294.518.515,1.1.515a1.8,1.8,0,0,0,.925-.2,5.1,5.1,0,0,0-1.646-.412q-.2-.03-.4-.066Zm.14-3.56a6.5,6.5,0,0,0,1.607.38l.224.035-.021-.127c-.042-.253-.468-.443-.99-.443A1.808,1.808,0,0,0,1072.414,438.293Z" transform="translate(-1068.004 -434.525)" fill="#e85ebe"/><path d="M1066.4,429.031c2.233,0,3.993,1.132,4.1,2.907h-2.631c-.092-.551-.719-.887-1.514-.887-.826,0-1.422.291-1.422.688,0,.444.6.658,2.126.9,2.647.4,3.6,1.27,3.6,2.815,0,1.836-1.928,2.968-4.207,2.968-2.341,0-4.115-1.163-4.207-3.044h2.631c.092.581.765.964,1.622.964.872,0,1.515-.321,1.515-.734,0-.428-.612-.7-2.157-.933-2.142-.321-3.549-.979-3.549-2.8,0-1.744,1.82-2.845,4.1-2.845m0-1.062a6.36,6.36,0,0,0-3.494.947,3.506,3.506,0,0,0-1.668,2.961,3.292,3.292,0,0,0,.953,2.441h-1.067l.054,1.114a3.9,3.9,0,0,0,1.71,3.045,6.142,6.142,0,0,0,3.558,1.01c3.053,0,5.269-1.695,5.269-4.03a3.253,3.253,0,0,0-.968-2.456h.881l-.068-1.126c-.139-2.3-2.26-3.905-5.16-3.905Z" transform="translate(-1061.12 -427.969)" fill="#cc26af"/></g></g></g></svg>