<svg xmlns="http://www.w3.org/2000/svg" width="88.398" height="54.918" viewBox="0 0 88.398 54.918"><g transform="translate(-461.63 -270.19)" opacity="0.8"><g transform="translate(461.63 311.951)"><g transform="translate(0 0)"><path d="M461.63,799.836h4.794c3.247,0,5.146,1.807,5.146,4.564,0,2.787-1.9,4.595-5.146,4.595h-2.006v3.323H461.63Zm4.671,6.693c1.547,0,2.481-.735,2.481-2.129,0-1.378-.934-2.1-2.481-2.1h-1.884v4.227Z" transform="translate(-461.63 -799.453)" fill="#68c100"/><path d="M606.017,843.349h2.726v.919a2.945,2.945,0,0,1,2.512-1.133,3.34,3.34,0,0,1,1.179.153l.031,2.558a3.021,3.021,0,0,0-1.394-.306,2.084,2.084,0,0,0-2.328,2.19v4.595h-2.726Z" transform="translate(-595.036 -839.459)" fill="#68c100"/><path d="M702.135,847.837a4.764,4.764,0,1,1-4.763-4.7A4.57,4.57,0,0,1,702.135,847.837Zm-6.892,0a2.142,2.142,0,1,0,2.129-2.374A2.155,2.155,0,0,0,695.243,847.837Z" transform="translate(-675.043 -839.459)" fill="#68c100"/><path d="M827.322,799.836l-3.6,12.482H820.9l-2.236-7.826-2.236,7.826h-2.818l-3.6-12.482H813L815.146,808l2.144-8.163h2.895l2.129,8.133,2.16-8.133Z" transform="translate(-783.52 -799.453)" fill="#68c100"/><path d="M1039.245,847.837a4.764,4.764,0,1,1-4.763-4.7A4.57,4.57,0,0,1,1039.245,847.837Zm-6.892,0a2.141,2.141,0,1,0,2.129-2.374A2.155,2.155,0,0,0,1032.353,847.837Z" transform="translate(-986.515 -839.459)" fill="#68c100"/><path d="M1170.885,843.349h2.726v.919a2.945,2.945,0,0,1,2.512-1.133,3.339,3.339,0,0,1,1.179.153l.031,2.558a3.021,3.021,0,0,0-1.394-.306,2.084,2.084,0,0,0-2.328,2.19v4.595h-2.726Z" transform="translate(-1116.946 -839.459)" fill="#68c100"/><path d="M1271.562,804.374l-1.087,1.225v2.068h-2.726V794.8h2.726v7.55l3.17-3.66h3.032l-3.446,3.829,3.63,5.146h-3.109Z" transform="translate(-1206.442 -794.802)" fill="#68c100"/><path d="M1392.615,846.045h-2.634c-.092-.551-.72-.888-1.516-.888-.827,0-1.424.291-1.424.689,0,.444.6.659,2.129.9,2.65.4,3.6,1.271,3.6,2.818,0,1.838-1.93,2.971-4.212,2.971-2.343,0-4.12-1.164-4.212-3.048h2.634c.092.582.766.965,1.624.965s1.516-.322,1.516-.735c0-.429-.613-.7-2.159-.934-2.144-.322-3.553-.98-3.553-2.8,0-1.746,1.823-2.849,4.1-2.849C1390.747,843.135,1392.508,844.268,1392.615,846.045Z" transform="translate(-1314.172 -839.459)" fill="#68c100"/><path d="M1504.364,808.673h2.741a1.618,1.618,0,0,0,1.823,1.578,1.809,1.809,0,0,0,1.823-1.991,1.791,1.791,0,0,0-1.868-1.976,2.068,2.068,0,0,0-1.761.842h-2.527l.368-7.29h7.887v2.374h-5.36l-.138,2.343a4.11,4.11,0,0,1,6.111,3.706,4.263,4.263,0,0,1-4.533,4.35C1506.217,812.609,1504.563,811.078,1504.364,808.673Z" transform="translate(-1425.063 -799.453)" fill="#68c100"/></g></g><g transform="translate(489.858 272.208)"><g transform="translate(0 0)"><rect width="19.825" height="19.825" transform="translate(15.521 1.518) rotate(45)" fill="none" stroke="rgba(142,202,233,0.08)" stroke-miterlimit="10" stroke-width="5"/><rect width="31.099" height="31.099" rx="6" fill="#74ca00"/><path d="M866.957,292.162,852.939,306.18,866.957,320.2l14.018-14.018Zm-13.2,14.018,13.2-13.2,13.2,13.2-13.2,13.2Z" transform="translate(-851.408 -290.644)" fill="#92d500"/></g><g transform="translate(3.591 6.763)"><g transform="translate(0 5.71)"><path d="M886.374,456.486v-13.7h3.279v.237a4.855,4.855,0,0,1,2.085-.441,5.282,5.282,0,0,1,0,10.552,4.853,4.853,0,0,1-2.085-.441v3.793Zm5.232-10.8a2.182,2.182,0,0,0,0,4.345,2.191,2.191,0,0,0,0-4.345Z" transform="translate(-885.891 -442.099)" fill="#bede18"/><path d="M885.866,437.193a4.8,4.8,0,0,1,0,9.586,4.128,4.128,0,0,1-2.568-.815v4.166h-2.313V437.4H883.3v.61a4.129,4.129,0,0,1,2.568-.815m-.132,7.449a2.67,2.67,0,0,0,0-5.312,2.663,2.663,0,0,0,0,5.312m.132-8.415a5.582,5.582,0,0,0-1.6.225v-.02h-4.246V451.1h4.246v-3.576a5.581,5.581,0,0,0,1.6.225,5.375,5.375,0,0,0,3.945-1.673,6.115,6.115,0,0,0,0-8.172,5.376,5.376,0,0,0-3.945-1.673Zm-.132,7.449a1.7,1.7,0,0,1,0-3.379c.866,0,1.426.663,1.426,1.689s-.56,1.689-1.426,1.689Z" transform="translate(-880.019 -436.227)" fill="#74ca00"/></g><g transform="translate(10.819)"><g transform="translate(0.546 0.502)"><path d="M1035.979,385.478a6.764,6.764,0,0,1-4.554-1.522,5.958,5.958,0,0,1-1.924-4.094l-.045-.544h4.587l.048.448a1.624,1.624,0,0,0,1.888,1.618,1.878,1.878,0,0,0,1.885-2.105,1.855,1.855,0,0,0-1.945-2.086,2.223,2.223,0,0,0-1.9.9l-.151.205h-4.093l.532-10.553h11.311v4.114h-7.05l-.1,1.744a5.821,5.821,0,0,1,2.076-.361c3.571,0,5.878,2.37,5.878,6.039a6.072,6.072,0,0,1-1.865,4.509A6.642,6.642,0,0,1,1035.979,385.478Z" transform="translate(-1029.456 -367.744)" fill="#fff"/></g><path d="M1034.487,362.144v3.109h-7.021l-.181,3.069a5.054,5.054,0,0,1,2.628-.682c3.21,0,5.376,2.066,5.376,5.537a5.584,5.584,0,0,1-5.938,5.7c-3.551,0-5.717-2.006-5.978-5.155h3.591a2.119,2.119,0,0,0,2.387,2.066,2.6,2.6,0,0,0-.06-5.2,2.708,2.708,0,0,0-2.307,1.1h-3.31l.481-9.549h10.331m1-1H1023.2l-.048.954-.481,9.549-.053,1.055h4.875l.3-.41a1.724,1.724,0,0,1,1.5-.693c1.193,0,1.443.861,1.443,1.583a1.424,1.424,0,0,1-1.383,1.6c-1.051,0-1.311-.447-1.388-1.169l-.1-.9h-5.584l.09,1.087c.31,3.748,2.984,6.077,6.979,6.077a7.142,7.142,0,0,0,4.918-1.825,7.089,7.089,0,0,0,.248-9.654,6.307,6.307,0,0,0-4.6-1.764,6.619,6.619,0,0,0-1.533.176l.033-.554h7.078V361.14Z" transform="translate(-1022.283 -361.14)" fill="#74ca00"/></g></g></g></g></svg>