<svg id="LOGO_inswave" xmlns="http://www.w3.org/2000/svg" xmlns:xlink="http://www.w3.org/1999/xlink" width="123.85" height="19.042" viewBox="0 0 123.85 19.042">
  <defs>
    <linearGradient id="linear-gradient" x1="0.54" y1="0.477" x2="0.404" y2="-0.396" gradientUnits="objectBoundingBox">
      <stop offset="0" stop-color="#006fdf"/>
      <stop offset="1" stop-color="#3fa9f5"/>
    </linearGradient>
    <linearGradient id="linear-gradient-2" y1="0.5" x2="1" y2="0.5" gradientUnits="objectBoundingBox">
      <stop offset="0" stop-color="#114194"/>
      <stop offset="1" stop-color="#111259"/>
    </linearGradient>
  </defs>
  <g id="그룹_1335" data-name="그룹 1335" transform="translate(31.729 0.026)">
    <g id="그룹_1334" data-name="그룹 1334" transform="translate(0 0)">
      <g id="그룹_1333" data-name="그룹 1333">
        <path id="패스_3311" data-name="패스 3311" d="M828.813,65.774h4.25l-2.472,14.017h-4.25Z" transform="translate(-826.341 -60.99)" fill="#006fdf"/>
        <path id="패스_3312" data-name="패스 3312" d="M861.264,70.525c.308-1.749-.391-2.206-1.252-2.206-1.372,0-2.065,1.184-2.383,2.986l-1.385,7.856h-4.25l1.954-11.084a27.783,27.783,0,0,0,.41-2.933h3.873c-.055.619-.139,1.4-.305,2.341h.054a4.712,4.712,0,0,1,4.4-2.556c3.094,0,3.717,2.26,3.224,5.058l-1.618,9.174h-4.25Z" transform="translate(-845.457 -60.36)" fill="#006fdf"/>
        <path id="패스_3313" data-name="패스 3313" d="M916.3,68.669a7.838,7.838,0,0,0-3.284-.753c-1.1,0-1.682.538-1.768,1.022-.151.861.415,1.157,2.576,2.018,1.358.538,2.676,1.453,2.211,4.089-.55,3.121-3.1,4.331-5.929,4.331a13.493,13.493,0,0,1-4.481-.672l.686-3.282a6.1,6.1,0,0,0,3.326.969c1.99,0,2.248-.7,2.357-1.318s-.946-.888-2.643-1.641a3.563,3.563,0,0,1-2.173-4.3c.265-1.506,1.816-4.2,5.985-4.2a11.872,11.872,0,0,1,3.8.565Z" transform="translate(-885.42 -60.36)" fill="#006fdf"/>
        <path id="패스_3314" data-name="패스 3314" d="M958,65.774l.284,9.981h.054l3.751-9.981h4.842l.15,9.981h.054l3.724-9.981h4.035l-6.211,14.017h-4.519l-.479-10.25h-.054l-3.959,10.25h-4.627l-1.294-14.017Z" transform="translate(-921.282 -60.99)" fill="#114194"/>
        <path id="패스_3315" data-name="패스 3315" d="M1033.7,65.817a18.361,18.361,0,0,1,4.676-.888c4.922,0,5.692,2.045,5.142,5.166l-.9,5.112c-.365,2.071-.5,3.013-.59,3.955h-3.874l.234-1.937h-.054c-.34.861-2.209,2.152-4.227,2.152-2.609,0-4.032-1.695-3.581-4.251.825-4.681,6.291-4.708,7.771-4.708h1.291c.474-2.69-1.516-2.69-2.135-2.69a8.3,8.3,0,0,0-4.119,1.237Zm5.536,6.591c-1.695,0-4.377.108-4.79,2.448-.323,1.829,1.157,1.829,1.507,1.829.377,0,2.538-.054,3.141-3.47Z" transform="translate(-978.434 -60.36)" fill="#114194"/>
        <path id="패스_3316" data-name="패스 3316" d="M1088.031,65.774h4.412l.823,9.981h.054l4.315-9.981h4.143l-6.856,14.017h-5Z" transform="translate(-1021.345 -60.99)" fill="#114194"/>
        <path id="패스_3317" data-name="패스 3317" d="M1150.424,73.269h-8.258c-.294,1.668.512,3.2,2.906,3.2a9.959,9.959,0,0,0,4.149-1.1l-.484,3.2a14.458,14.458,0,0,1-4.581.807c-4.922,0-6.575-2.986-5.821-7.264.664-3.766,3.472-7.183,7.48-7.183,1.264,0,6.08,0,4.789,7.318Zm-3.466-2.314c.313-1.775.15-3.443-1.6-3.443-2.179,0-2.653,2.69-2.786,3.443Z" transform="translate(-1058.7 -60.36)" fill="#114194"/>
        <path id="패스_3318" data-name="패스 3318" d="M837.242,47l-.721,4.088,4.55-1.7.421-2.39Z" transform="translate(-833.927 -47)" fill="#006fdf"/>
      </g>
    </g>
  </g>
  <g id="그룹_1337" data-name="그룹 1337" transform="translate(0 0)">
    <g id="그룹_1336" data-name="그룹 1336">
      <path id="패스_3319" data-name="패스 3319" d="M708.045,52.284l-.49-5.386h-5.724l1.14,12.343A16.339,16.339,0,0,1,708.045,52.284Z" transform="translate(-701.831 -46.898)" fill="url(#linear-gradient)"/>
    </g>
    <path id="패스_3320" data-name="패스 3320" d="M733.713,46.961H728.25a36.99,36.99,0,0,1-.157,6.184c-.533,4.45-2.242,7.291-3.437,7.128-.924-.126-.924-.892-1.69-2.934-1.165-3.106-2.807-4.339-4.483-4.61-.154-.025-.309-.044-.463-.055-4.138-.3-8.337,4.832-9.526,11.782q-.117.686-.19,1.361h5.715q.03-.191.063-.384c.709-4.14,2.236-7.238,3.437-7.128.6.055.966,1.525,1.054,1.815.933,3.1,2.758,5.283,5.146,5.692l.032,0c4.273.7,8.727-4.539,9.958-11.731A25.174,25.174,0,0,0,733.713,46.961Z" transform="translate(-706.654 -46.945)" fill="url(#linear-gradient-2)"/>
  </g>
</svg>
